{
    "asset" : {
        "generator" : "Khronos glTF Blender I/O v1.3.48",
        "version" : "2.0"
    },
    "scene" : 0,
    "scenes" : [
        {
            "name" : "Scene",
            "nodes" : [
                0,
                1,
                2
            ]
        }
    ],
    "nodes" : [
        {
            "name" : "Light",
            "rotation" : [
                0.16907575726509094,
                0.7558803558349609,
                -0.27217137813568115,
                0.570947527885437
            ],
            "translation" : [
                4.076245307922363,
                5.903861999511719,
                -1.0054539442062378
            ]
        },
        {
            "name" : "Camera",
            "rotation" : [
                0.5023099780082703,
                0.43034031987190247,
                -0.5810113549232483,
                0.47425487637519836
            ],
            "translation" : [
                153.50320434570312,
                10.348615646362305,
                -0.8957943916320801
            ]
        },
        {
            "mesh" : 0,
            "name" : "sponza_372",
            "rotation" : [
                0.7071068286895752,
                0,
                0,
                0.7071067094802856
            ],
            "translation" : [
                -27.652198791503906,
                -92.21578979492188,
                2.4817047119140625
            ]
        }
    ],
    "materials" : [
        {
            "doubleSided" : true,
            "emissiveFactor" : [
                0,
                0,
                0
            ],
            "name" : "Material__57",
            "pbrMetallicRoughness" : {
                "baseColorTexture" : {
                    "index" : 0,
                    "texCoord" : 0
                },
                "metallicFactor" : 1,
                "roughnessFactor" : 0.2928932309150696
            }
        },
        {
            "doubleSided" : true,
            "emissiveFactor" : [
                0,
                0,
                0
            ],
            "name" : "vase_round",
            "normalTexture" : {
                "index" : 1,
                "texCoord" : 0
            },
            "pbrMetallicRoughness" : {
                "baseColorTexture" : {
                    "index" : 2,
                    "texCoord" : 0
                },
                "metallicFactor" : 1,
                "roughnessFactor" : 0.2928932309150696
            }
        }
    ],
    "meshes" : [
        {
            "name" : "sponza_372-mesh",
            "primitives" : [
                {
                    "attributes" : {
                        "POSITION" : 0,
                        "NORMAL" : 1,
                        "TEXCOORD_0" : 2
                    },
                    "indices" : 3,
                    "material" : 0
                },
                {
                    "attributes" : {
                        "POSITION" : 4,
                        "NORMAL" : 5,
                        "TEXCOORD_0" : 6
                    },
                    "indices" : 7,
                    "material" : 1
                }
            ]
        }
    ],
    "textures" : [
        {
            "source" : 0
        },
        {
            "source" : 1
        },
        {
            "source" : 2
        }
    ],
    "images" : [
        {
            "mimeType" : "image/png",
            "name" : "vase_plant",
            "uri" : "vase_plant.png"
        },
        {
            "mimeType" : "image/png",
            "name" : "vase_round_bump",
            "uri" : "vase_round_bump.png"
        },
        {
            "mimeType" : "image/png",
            "name" : "vase_round",
            "uri" : "vase_round.png"
        }
    ],
    "accessors" : [
        {
            "bufferView" : 0,
            "componentType" : 5126,
            "count" : 450,
            "max" : [
                28.987823486328125,
                18.806747436523438,
                -12.874557495117188
            ],
            "min" : [
                -26.53957176208496,
                -38.376953125,
                -36.069854736328125
            ],
            "type" : "VEC3"
        },
        {
            "bufferView" : 1,
            "componentType" : 5126,
            "count" : 450,
            "type" : "VEC3"
        },
        {
            "bufferView" : 2,
            "componentType" : 5126,
            "count" : 450,
            "type" : "VEC2"
        },
        {
            "bufferView" : 3,
            "componentType" : 5123,
            "count" : 1200,
            "type" : "SCALAR"
        },
        {
            "bufferView" : 4,
            "componentType" : 5126,
            "count" : 1230,
            "max" : [
                26.39752197265625,
                14.780044555664062,
                35.0284423828125
            ],
            "min" : [
                -25.591474533081055,
                -37.150848388671875,
                -21.3111572265625
            ],
            "type" : "VEC3"
        },
        {
            "bufferView" : 5,
            "componentType" : 5126,
            "count" : 1230,
            "type" : "VEC3"
        },
        {
            "bufferView" : 6,
            "componentType" : 5126,
            "count" : 1230,
            "type" : "VEC2"
        },
        {
            "bufferView" : 7,
            "componentType" : 5123,
            "count" : 6633,
            "type" : "SCALAR"
        }
    ],
    "bufferViews" : [
        {
            "buffer" : 0,
            "byteLength" : 5400,
            "byteOffset" : 0
        },
        {
            "buffer" : 0,
            "byteLength" : 5400,
            "byteOffset" : 5400
        },
        {
            "buffer" : 0,
            "byteLength" : 3600,
            "byteOffset" : 10800
        },
        {
            "buffer" : 0,
            "byteLength" : 2400,
            "byteOffset" : 14400
        },
        {
            "buffer" : 0,
            "byteLength" : 14760,
            "byteOffset" : 16800
        },
        {
            "buffer" : 0,
            "byteLength" : 14760,
            "byteOffset" : 31560
        },
        {
            "buffer" : 0,
            "byteLength" : 9840,
            "byteOffset" : 46320
        },
        {
            "buffer" : 0,
            "byteLength" : 13266,
            "byteOffset" : 56160
        }
    ],
    "buffers" : [
        {
            "byteLength" : 69428,
            "uri" : "sponza_flowers_bits.bin"
        }
    ]
}
